<svg xmlns="http://www.w3.org/2000/svg" viewBox="0 0 492.199 492.199"><circle cx="246.099" cy="275.4" r="73.975" fill="#fff"/><path d="M459.388 125.249H375.48c-4.178-3.918-8.527-9.461-8.527-15.625V88.139c0-11.868-9.617-21.486-21.485-21.486H146.733c-11.865 0-21.485 9.619-21.485 21.486v21.483c0 6.166-4.347 11.709-8.527 15.625H32.814C14.69 125.249 0 134.213 0 145.269v260.258c0 11.055 14.69 20.02 32.814 20.02h426.574c18.121 0 32.811-8.965 32.811-20.019V145.269c-.001-11.056-14.69-20.02-32.811-20.02zM246.1 377.943c-56.633 0-102.542-45.913-102.542-102.543 0-56.634 45.909-102.543 102.542-102.543S348.641 218.764 348.641 275.4c0 56.63-45.908 102.543-102.541 102.543z" fill="#fff"/><circle cx="398.446" cy="195.562" r="16.113" fill="#fff"/></svg>